<?xml version="1.0" encoding="utf-8"?>
<!-- Generator: Adobe Illustrator 16.0.4, SVG Export Plug-In . SVG Version: 6.00 Build 0)  -->
<!DOCTYPE svg PUBLIC "-//W3C//DTD SVG 1.1//EN" "http://www.w3.org/Graphics/SVG/1.1/DTD/svg11.dtd">
<svg version="1.1" id="Layer_1" xmlns="http://www.w3.org/2000/svg" xmlns:xlink="http://www.w3.org/1999/xlink" x="0px" y="0px"
	 width="540.027px" height="159.666px" viewBox="0 0 540.027 159.666" enable-background="new 0 0 540.027 159.666"
	 xml:space="preserve">
<g>
	<path fill="#222222" d="M364.48,37.027c4.43-2.439,8.934-4.772,13.621-6.677c8.111-3.299,16.732-5.254,25.662-5.77
		c7.31-0.42,14.126,0.597,20.6,2.667c1.131-1.088,2.303-2.109,3.502-3.084c-6.791-2.443-13.923-3.788-21.576-3.548
		c-9.273,0.293-18.27,2.035-26.816,5.34c-6.129,2.371-12.026,5.156-17.672,8.409C362.706,35.242,363.601,36.128,364.48,37.027z"/>
	<path fill="#222222" d="M444.923,125.315c-6.344,4.764-13.453,8.574-21.783,9.645c-1.604,0.207-3.402-0.105-4.969-0.584
		c-2.516-0.77-3.064-0.359-3.361,2.057c-0.723,5.877-3.082,10.99-8.826,14.23c-0.469,0.264-1.023,0.404-1.863,0.727
		c0.641-4.402,0.975-8.406-0.643-12.324c-1.312-3.184-4.133-5.02-7.816-5.227c-6.26-0.352-12.648-0.254-18.586-2.393
		c-4.633-1.668-9.02-3.916-13.555-5.83c-0.055-0.023-0.105-0.052-0.16-0.076c-0.997,0.867-2.043,1.68-3.123,2.455
		c5.265,3.097,10.834,5.608,16.955,6.973c5.369,1.195,11.01,1.312,16.486,2.148c1.965,0.299,4.502-0.023,5.588,2.168
		c2.291,4.629,2.145,9.234-0.402,13.787c-0.383,0.682-0.75,2.012-0.426,2.262c0.709,0.549,1.998,1.006,2.82,0.777
		c2.375-0.658,4.803-1.416,6.908-2.6c5.75-3.229,9.057-8.109,10.16-14.137c1.887-0.207,3.551-0.184,5.078-0.6
		c3.539-0.963,7.072-1.996,10.498-3.26c6.435-2.373,12.261-5.665,17.103-10.286c-1.59-0.271-3.17-0.609-4.739-0.995
		C445.817,124.593,445.387,124.967,444.923,125.315z"/>
	<path fill="#FFFFFF" d="M403.763,24.581c-8.93,0.516-17.551,2.471-25.662,5.77c-4.688,1.905-9.191,4.238-13.621,6.677
		c0.798,0.816,1.587,1.639,2.356,2.478c4.595,5.01,6.66,11.483,8.437,17.955c1.135,4.142,2.567,8.209,3.507,12.398
		c2.107,9.389,1.772,18.826-0.758,28.4c-1.646,6.232-4.209,12.082-7.148,17.842c-1.916,3.753-4.503,6.823-7.513,9.439
		c0.055,0.024,0.105,0.053,0.16,0.076c4.535,1.914,8.922,4.162,13.555,5.83c5.938,2.139,12.326,2.041,18.586,2.393
		c3.684,0.207,6.504,2.043,7.816,5.227c1.617,3.918,1.283,7.922,0.643,12.324c0.84-0.322,1.395-0.463,1.863-0.727
		c5.744-3.24,8.104-8.354,8.826-14.23c0.297-2.416,0.846-2.826,3.361-2.057c1.566,0.479,3.365,0.791,4.969,0.584
		c8.33-1.07,15.439-4.881,21.783-9.645c0.464-0.349,0.894-0.723,1.344-1.082c-3.426-0.843-6.802-1.936-10.121-3.223
		c-5.251-2.037-9.856-6.029-14.603-9.379c-2.239-1.578-4.32-3.531-6.134-5.643c-4.424-5.156-6.626-11.52-7.623-18.248
		c-0.863-5.816-1.521-11.727-1.534-17.598c-0.009-4.121,1.161-8.254,1.908-12.36c1.794-9.859,5.858-18.418,12.117-26.107
		c1.294-1.589,2.66-3.057,4.085-4.427C417.889,25.178,411.073,24.16,403.763,24.581z"/>
	<path fill="#222222" d="M539.417,52.943c-0.725-8.148-1.925-16.164-5.96-23.477c-3.368-6.104-7.614-11.47-12.599-15.914
		c-4.924-4.391-11.053-7.124-17.318-8.775c-5.122-1.349-10.487-1.672-15.422-2.401c-6.698,0.829-12.98,1.44-19.211,2.421
		c-8.502,1.334-16.525,4.367-24.124,8.572c-5.881,3.251-11.692,6.545-16.919,10.795c-1.199,0.975-2.371,1.996-3.502,3.084
		c-1.425,1.371-2.791,2.838-4.085,4.427c-6.259,7.689-10.323,16.248-12.117,26.107c-0.747,4.106-1.917,8.239-1.908,12.36
		c0.013,5.871,0.671,11.782,1.534,17.598c0.997,6.729,3.199,13.092,7.623,18.248c1.813,2.111,3.895,4.064,6.134,5.643
		c4.746,3.35,9.352,7.342,14.603,9.379c3.319,1.287,6.695,2.38,10.121,3.223c1.569,0.386,3.149,0.724,4.739,0.995
		c5.088,0.87,10.275,1.121,15.543,0.534c2.164-0.24,4.327-0.801,6.415-1.479c2.325-0.756,2.903-0.553,3.902,1.779
		c2.085,4.869,0.755,9.221-1.631,13.475c-0.345,0.611-0.755,1.871-0.574,2.006c0.805,0.613,1.96,1.475,2.72,1.248
		c2.736-0.816,5.501-1.766,8.007-3.16c6.177-3.436,9.737-8.664,9.218-16.424c-0.037-0.547,0.617-1.443,1.148-1.682
		c1.789-0.801,3.791-1.127,5.484-2.084c4.281-2.422,8.639-4.785,12.589-7.74c4.121-3.084,8.217-6.436,11.574-10.381
		c4.737-5.562,8.817-11.814,11.146-18.994c1.465-4.52,2.832-9.213,3.271-13.93C540.292,63.305,539.873,58.071,539.417,52.943z
		 M531.029,86.194c-4.18,8.725-9.892,16.215-17.639,21.641c-5.78,4.047-11.589,8.188-18.41,10.193
		c-0.525,0.154-1.129,0.254-1.648,0.139c-2.541-0.559-3.593,0.422-3.002,3.285c1.225,5.936-0.131,10.297-4.813,13.779
		c-1.6,1.193-3.345,2.168-5.119,3.305c0.418-2.789,0.954-5.182,1.099-7.6c0.206-3.459-1.41-6.352-3.134-9.129
		c-0.959-1.547-2.497-1.164-3.743-0.811c-9.2,2.615-18.309,2.111-27.572,0.072c-7.426-1.635-14.117-4.746-20.248-9.23
		c-6.78-4.957-12.881-10.744-14.869-19.693c-1.17-5.258-1.923-10.656-2.437-16.037c-0.739-7.722,0.976-15.219,2.953-22.557
		c2.216-8.225,6.025-15.554,11.891-21.685c7.604-7.947,16.759-13.12,26.412-17.555c6.103-2.805,12.347-5.111,18.909-6.313
		c10.039-1.839,20.133-2.843,30.225-0.547c7.27,1.654,14.12,4.613,19.73,9.847c6.877,6.414,12.31,14.067,14.626,23.646
		c0.989,4.092,1.324,8.377,1.763,12.598c0.318,3.07,0.288,6.181,0.464,9.27C536.945,71.206,534.536,78.875,531.029,86.194z"/>
	<path fill="#70A4D8" d="M536.001,53.542c-0.438-4.221-0.773-8.506-1.763-12.598c-2.316-9.578-7.749-17.231-14.626-23.646
		c-5.61-5.233-12.461-8.192-19.73-9.847C489.791,5.157,479.697,6.161,469.658,8c-6.562,1.202-12.807,3.509-18.909,6.313
		c-9.653,4.435-18.809,9.607-26.412,17.555c-5.865,6.131-9.675,13.46-11.891,21.685c-1.978,7.338-3.692,14.835-2.953,22.557
		c0.514,5.38,1.267,10.779,2.437,16.037c1.988,8.949,8.089,14.736,14.869,19.693c6.131,4.484,12.822,7.596,20.248,9.23
		c9.264,2.039,18.372,2.543,27.572-0.072c1.246-0.354,2.784-0.736,3.743,0.811c1.724,2.777,3.34,5.67,3.134,9.129
		c-0.145,2.418-0.681,4.811-1.099,7.6c1.774-1.137,3.52-2.111,5.119-3.305c4.683-3.482,6.038-7.844,4.813-13.779
		c-0.591-2.863,0.461-3.844,3.002-3.285c0.52,0.115,1.123,0.016,1.648-0.139c6.821-2.006,12.63-6.146,18.41-10.193
		c7.747-5.426,13.459-12.916,17.639-21.641c3.507-7.319,5.916-14.989,5.437-23.382C536.29,59.723,536.32,56.613,536.001,53.542z"/>
	<path fill="#222222" d="M150.802,25.807c2.859-2.621,6.238-4.824,9.635-6.855c3.158-1.887,6.586-3.416,10.003-4.887
		c2.708-1.166,5.532-2.143,8.387-2.959c4.768-1.36,9.634-2.426,14.396-3.802c5.346-1.543,10.761-1.316,16.134-0.619
		c6.269,0.814,12.478,2.023,18.712,3.066c6.042,1.011,10.836,4.282,15.003,8.067c5.032,4.566,10.024,9.361,13.948,14.74
		c0.639,0.875,1.224,1.775,1.778,2.689c0.932-0.868,1.893-1.699,2.897-2.477c-0.985-1.655-2.101-3.25-3.421-4.74
		c-3.714-4.193-7.793-8.121-11.883-12.01c-4.447-4.23-9.723-7.254-15.825-9.168c-8.011-2.513-16.347-2.96-24.618-3.914
		c-4.17-0.481-8.23-0.294-12.262,0.897c-3.059,0.902-6.209,1.531-9.279,2.402c-8.236,2.338-16.662,4.238-23.955,8.808
		c-3.012,1.889-6.483,3.311-9.037,5.619c-1.781,1.609-3.46,3.315-5.108,5.05c0.705,0.807,1.386,1.634,2.046,2.482
		C149.146,27.38,149.96,26.58,150.802,25.807z"/>
	<path fill="#222222" d="M235.505,116.792c-6.275,4.248-12.848,7.891-20.152,10.357c-1.125,0.381-2.499,0.475-3.327,1.154
		c-0.766,0.627-1.618,2.207-1.279,2.77c1.462,2.43,0.112,4.5-0.792,6.432c-2.36,5.047-7.252,7.268-12.762,9.152
		c0.207-1.746,0.408-3.172,0.537-4.602c0.443-4.881-1.205-9.004-5.289-12.184c-0.514-0.4-1.221-0.797-1.854-0.818
		c-3.034-0.107-6.076-0.012-9.109-0.125c-6.394-0.242-12.574-1.518-18.579-3.545c-5.998-2.023-11.151-5.359-15.858-9.24
		c-2.486-2.05-4.996-4.111-7.205-6.395c-0.312,0.353-0.625,0.705-0.939,1.057c-0.356,0.398-0.739,0.767-1.111,1.147
		c2.61,2.624,5.448,5.079,8.427,7.312c4.016,3.006,8.297,5.713,13.164,7.658c9.172,3.666,18.92,4.311,28.605,5.195
		c2.559,0.234,3.699,1.215,4.658,2.982c2.631,4.846,2.27,9.432-1.369,13.76c-0.383,0.455-0.768,1.326-0.549,1.691
		c0.26,0.436,1.156,0.652,1.811,0.736c0.52,0.068,1.121-0.141,1.637-0.338c3.099-1.189,6.335-2.162,9.24-3.678
		c5.027-2.621,9.538-5.848,11.051-11.457c0.344-1.275,0.504-2.594,0.896-3.854c0.203-0.65,0.575-1.5,1.142-1.77
		c2.663-1.266,5.435-2.336,8.14-3.529c1.664-0.734,3.33-1.484,4.9-2.371c1.518-0.857,2.925-1.887,4.359-2.869
		c3.152-2.156,6.305-4.318,9.436-6.506c1.059-0.739,2.017-1.56,2.915-2.429c-0.538-0.97-1.042-1.958-1.502-2.971
		C241.994,112.25,238.813,114.553,235.505,116.792z"/>
	<path fill="#9DE0FC" d="M243.071,17.819c-4.167-3.785-8.961-7.057-15.003-8.067c-6.234-1.043-12.443-2.252-18.712-3.066
		c-5.373-0.697-10.788-0.924-16.134,0.619c-4.762,1.376-9.628,2.441-14.396,3.802c-2.854,0.816-5.679,1.793-8.387,2.959
		c-3.417,1.471-6.845,3-10.003,4.887c-3.396,2.031-6.775,4.234-9.635,6.855c-0.842,0.772-1.656,1.573-2.451,2.391
		c1.081,1.389,2.121,2.814,3.076,4.309c4.59,7.188,7.938,14.831,7.644,23.129c-0.247,6.994-1.47,13.926-2.375,20.869
		c-0.371,2.85-1.038,5.656-1.568,8.484c-2.594,9.732-8.743,17.374-15.292,24.76c2.209,2.283,4.719,4.345,7.205,6.395
		c4.707,3.881,9.86,7.217,15.858,9.24c6.005,2.027,12.186,3.303,18.579,3.545c3.033,0.113,6.075,0.018,9.109,0.125
		c0.633,0.021,1.34,0.418,1.854,0.818c4.084,3.18,5.732,7.303,5.289,12.184c-0.129,1.43-0.33,2.855-0.537,4.602
		c5.51-1.885,10.401-4.105,12.762-9.152c0.904-1.932,2.254-4.002,0.792-6.432c-0.339-0.562,0.514-2.143,1.279-2.77
		c0.828-0.68,2.202-0.773,3.327-1.154c7.305-2.467,13.877-6.109,20.152-10.357c3.308-2.239,6.489-4.542,9.241-7.274
		c-1.637-3.602-2.792-7.469-3.501-11.55c-1.229-7.08-2.134-14.23-3.002-21.381c-0.617-5.11,0.983-10.096,1.944-15.146
		c1.189-6.238,5.034-10.896,9.101-15.569c2.307-2.65,4.589-5.324,6.903-7.969c0.824-0.94,1.703-1.812,2.606-2.654
		c-0.554-0.914-1.14-1.814-1.778-2.689C253.095,27.18,248.103,22.385,243.071,17.819z"/>
	<path fill="#99FFCC" d="M332.821,16.662c0.688,0.105,1.356,0.209,2,0.312C334.155,16.868,333.488,16.763,332.821,16.662z"/>
	<path fill="#99FFCC" d="M320.144,14.906C320.144,14.906,320.144,14.906,320.144,14.906c0.008,0.001,0.016,0.002,0.023,0.003
		C320.16,14.908,320.152,14.907,320.144,14.906z"/>
	<path fill="#222222" d="M370.874,116.101c2.939-5.76,5.503-11.609,7.148-17.842c2.53-9.574,2.865-19.011,0.758-28.4
		c-0.939-4.189-2.372-8.257-3.507-12.398c-1.776-6.472-3.842-12.945-8.437-17.955c-0.77-0.839-1.559-1.662-2.356-2.478
		c-0.879-0.899-1.774-1.786-2.68-2.663c-3.701-3.582-7.594-7.001-11.443-10.441c-3.317-2.965-7.182-5.435-11.767-6.303
		c-1.048-0.198-2.343-0.418-3.77-0.646c-0.644-0.103-1.312-0.207-2-0.312c-4.401-0.672-9.502-1.363-12.653-1.753
		c-0.008-0.001-0.016-0.002-0.023-0.003c-1.598-0.198-2.691-0.318-2.929-0.318c-10.286,0.037-20.474,2.316-30.355,5.487
		c-5.095,1.638-10.06,3.893-14.838,6.329c-3.625,1.849-7.139,3.898-10.328,6.367c-1.004,0.777-1.965,1.608-2.897,2.477
		c-0.904,0.842-1.783,1.714-2.606,2.654c-2.314,2.645-4.597,5.318-6.903,7.969c-4.066,4.674-7.911,9.331-9.101,15.569
		c-0.961,5.05-2.562,10.035-1.944,15.146c0.868,7.151,1.773,14.301,3.002,21.381c0.709,4.081,1.865,7.948,3.501,11.55
		c0.46,1.013,0.965,2.001,1.502,2.971c2.613,4.717,6.14,8.913,10.689,12.444c9.44,7.33,20.848,11.176,32.768,13.854
		c1.998,0.447,4.298,0.746,5.78,1.891c4.567,3.537,2.943,11.299-0.276,15.188c-0.696,0.84-0.885,2.047-1.306,3.086
		c1.202,0.24,2.525,0.941,3.582,0.645c3.954-1.119,7.951-2.283,11.688-3.961c4.771-2.145,8.364-5.656,10.265-10.441
		c0.514-1.291,1.241-1.646,2.63-1.805c2.965-0.344,6.052-0.594,8.828-1.607c6.481-2.363,12.98-4.814,19.154-7.855
		c3.565-1.757,7.033-3.668,10.187-5.93c1.08-0.775,2.126-1.588,3.123-2.455C366.371,122.924,368.958,119.854,370.874,116.101z
		 M340.615,134.251c-4.765,1.752-9.592,3.361-14.472,4.736c-1.659,0.469-3.595,0.211-5.337-0.037
		c-2.841-0.406-3.676-0.061-4.447,2.748c-1.919,6.979-7.281,10.443-13.957,12.609c-0.224,0.072-0.473,0.078-0.708,0.084
		c-0.147,0.002-0.292-0.051-0.451-0.084c0.371-2.512,0.684-5.029,1.125-7.533c0.651-3.684-1.052-6.494-3.246-9.111
		c-0.336-0.402-1.058-0.811-1.551-0.738c-4.334,0.621-8.094-1.225-11.927-2.252c-9.754-2.617-18.928-6.568-26.687-12.734
		c-4.472-3.555-7.53-8.309-9.883-13.393c-5.143-11.111-6.537-23.045-6.524-35.263c0.008-7.12,1.592-14.097,5.902-20.035
		c6.131-8.445,12.873-16.682,22.466-21.885c5.703-3.092,11.887-5.389,17.975-7.724c8.103-3.111,16.674-3.912,25.104-4.037
		c7.497-0.11,15.004,0.797,22.385,1.843c3.027,0.429,5.99,2.059,8.538,3.731c7.258,4.764,13.614,10.495,18.906,17.226
		c4.466,5.679,6.522,12.446,8.415,19.229c2.417,8.658,4.591,17.393,3.316,26.654c-1.1,7.969-3.3,15.66-7.007,23.035
		c-2.008,3.994-3.808,8.094-7.383,11.146C355.089,127.655,348.142,131.481,340.615,134.251z"/>
	<path fill="#FFFDA0" d="M361.168,122.466c3.575-3.053,5.375-7.152,7.383-11.146c3.707-7.375,5.907-15.066,7.007-23.035
		c1.274-9.261-0.899-17.996-3.316-26.654c-1.893-6.782-3.949-13.55-8.415-19.229c-5.292-6.73-11.648-12.462-18.906-17.226
		c-2.548-1.673-5.511-3.303-8.538-3.731c-7.381-1.046-14.888-1.953-22.385-1.843c-8.431,0.125-17.002,0.926-25.104,4.037
		c-6.088,2.335-12.271,4.632-17.975,7.724c-9.593,5.203-16.335,13.439-22.466,21.885c-4.311,5.938-5.895,12.915-5.902,20.035
		c-0.013,12.218,1.382,24.152,6.524,35.263c2.353,5.084,5.411,9.838,9.883,13.393c7.759,6.166,16.933,10.117,26.687,12.734
		c3.833,1.027,7.593,2.873,11.927,2.252c0.493-0.072,1.215,0.336,1.551,0.738c2.194,2.617,3.897,5.428,3.246,9.111
		c-0.441,2.504-0.754,5.021-1.125,7.533c0.159,0.033,0.304,0.086,0.451,0.084c0.235-0.006,0.484-0.012,0.708-0.084
		c6.676-2.166,12.038-5.631,13.957-12.609c0.771-2.809,1.606-3.154,4.447-2.748c1.742,0.248,3.678,0.506,5.337,0.037
		c4.88-1.375,9.707-2.984,14.472-4.736C348.142,131.481,355.089,127.655,361.168,122.466z"/>
	<path fill="#222222" d="M139.835,109.749c6.549-7.386,12.698-15.027,15.292-24.76c0.53-2.828,1.197-5.634,1.568-8.484
		c0.905-6.943,2.128-13.875,2.375-20.869c0.294-8.298-3.054-15.94-7.644-23.129c-0.955-1.495-1.995-2.92-3.076-4.309
		c-0.66-0.848-1.341-1.675-2.046-2.482c-4.333-4.958-9.495-9.146-15.401-12.393c-9.721-5.344-20.236-9.179-31.172-11.605
		C93.776,0.395,87.83-0.316,81.665,0.136c-9.484,0.693-19.062,0.672-28.36,2.6c-9.712,2.014-19.187,4.67-26.994,10.538
		c-3.599,2.706-6.493,6.209-9.886,9.172c-5.215,4.556-8.548,10.432-11.419,16.307c-4.434,9.065-5.415,19.163-4.869,29.206
		C0.685,78.064,3.694,87.79,9.001,96.921c5.218,8.969,12.824,15.818,21.34,21.969c5.585,4.029,11.293,7.758,18.027,9.871
		c1.909,0.598,3.835,1.531,3.875,4.008c0.075,4.814-1.057,9.236-4.2,12.977c-1.199,1.426-0.745,3.715,1.233,3.951
		c2.943,0.355,6.084,0.787,8.873,0.205c7.703-1.592,12.394-6.957,16.444-12.756c1.172-1.678,2.376-1.969,4.358-2
		c4.708-0.08,9.516-0.049,14.064-0.916c9.287-1.77,18.373-4.193,26.374-9.113c6.479-3.989,13.144-7.763,18.396-13.163
		c0.372-0.381,0.754-0.749,1.111-1.147C139.21,110.454,139.523,110.102,139.835,109.749z M111.634,124.601
		c-8.729,4.191-18.444,5.844-28.421,6.123c-1.578,0.043-3.16,0.051-4.739,0.074c-3.542,0.051-5.98,1.096-7.736,4.426
		c-2.577,4.893-6.687,8.762-12.427,10.652c-1.345,0.445-2.843,0.508-4.698,0.818c1.004-3.449,1.834-6.275,2.648-9.107
		c0.881-3.059,0.354-6.105-1.196-8.871c-0.736-1.312-2.319-2.699-3.787-3.123c-6.411-1.854-12.036-4.951-17.08-9.084
		c-4.72-3.873-9.603-7.607-13.964-11.812c-6.325-6.102-9.957-13.672-12.643-21.641C3.516,70.972,3.648,58.876,6.605,46.97
		c1.811-7.283,5.743-13.738,10.952-19.348c3.248-3.496,6.468-7.072,10.159-10.13c6.228-5.157,14.114-7.511,21.955-9.845
		C61.399,4.157,73.572,4.185,85.869,4.25c6.707,0.037,13.125,1.148,19.375,2.93c6.611,1.887,12.944,4.816,19.309,7.494
		c11.496,4.842,19.678,13.066,25.318,23.403c3.262,5.976,5.631,12.38,4.836,19.21c-0.925,7.928-1.51,15.932-3.043,23.736
		c-1.585,8.061-5.973,14.943-10.965,21.594C133.208,112.597,122.89,119.198,111.634,124.601z"/>
	<path fill="#83FFCD" d="M140.699,102.616c4.992-6.65,9.38-13.533,10.965-21.594c1.533-7.804,2.118-15.808,3.043-23.736
		c0.795-6.83-1.574-13.234-4.836-19.21c-5.641-10.337-13.822-18.562-25.318-23.403c-6.364-2.678-12.697-5.607-19.309-7.494
		c-6.25-1.781-12.668-2.893-19.375-2.93c-12.297-0.064-24.47-0.093-36.198,3.398c-7.841,2.334-15.727,4.688-21.955,9.845
		c-3.69,3.058-6.911,6.634-10.159,10.13C12.348,33.232,8.416,39.687,6.605,46.97C3.648,58.876,3.516,70.972,7.592,83.056
		c2.686,7.969,6.318,15.539,12.643,21.641c4.361,4.205,9.244,7.939,13.964,11.812c5.044,4.133,10.669,7.23,17.08,9.084
		c1.468,0.424,3.051,1.811,3.787,3.123c1.55,2.766,2.077,5.812,1.196,8.871c-0.813,2.832-1.644,5.658-2.648,9.107
		c1.854-0.311,3.353-0.373,4.698-0.818c5.74-1.891,9.85-5.76,12.427-10.652c1.756-3.33,4.194-4.375,7.736-4.426
		c1.579-0.023,3.161-0.031,4.739-0.074c9.977-0.279,19.691-1.932,28.421-6.123C122.89,119.198,133.208,112.597,140.699,102.616z"/>
</g>
<g>
	<path fill="#222222" d="M46.639,27.583v0.191c0,0.064,0.015,0.097,0.048,0.097c0.031,0,0.048,0.032,0.048,0.096v0.192h0.096
		l0.576,1.535c0.639,1.857-1.024,7.617-4.992,17.281c-4.224,10.305-6.177,18.336-5.856,24.096c0.703,4.096,4.128,0.801,10.272-9.889
		c4.863-8.318,9.567-17.438,14.112-27.359c0.576-1.344,1.184-2.736,1.824-4.176c0.639-1.44,1.44-2.641,2.4-3.601
		c2.112-2.304,4.671-2.911,7.68-1.823c1.023-1.216,2.223-2.049,3.6-2.496c1.375-0.447,2.688-0.543,3.936-0.289
		c1.248,0.257,2.319,0.85,3.216,1.776c0.896,0.929,1.375,2.16,1.439,3.696c0.192,1.281-0.465,4.32-1.968,9.119
		c-1.504,4.801-2.896,9.186-4.176,13.152c-1.281,3.969-2.592,8.289-3.936,12.961c-3.264,11.072-5.856,21.503-7.776,31.294
		c-0.064,2.049-0.945,3.744-2.64,5.088c-1.696,1.346-3.585,2.225-5.664,2.641c-2.081,0.416-4.048,0.336-5.904-0.24
		c-2.241-0.641-3.425-2.24-3.552-4.799c0-0.705-0.033-1.408-0.096-2.113c0.127,2.178-1.44,4.033-4.704,5.568
		c-0.897,0.447-1.728,0.863-2.496,1.248c-4.48,1.344-9.185,1.057-14.112-0.863c-2.304-0.961-4.368-2.256-6.192-3.889
		c-1.824-1.633-3.088-3.566-3.792-5.809c-2.241-7.166-1.824-16.574,1.248-28.223c1.28-4.992,2.847-9.854,4.704-14.592
		c1.855-4.735,3.216-8.16,4.08-10.272c0.864-2.111,1.488-3.566,1.872-4.367c0.384-0.8,0.799-1.584,1.248-2.353
		c1.087-2.175,2.016-3.647,2.784-4.416l1.152-1.056c0.127-0.128,0.255-0.207,0.384-0.24c0.127-0.031,0.288-0.111,0.48-0.24
		c0.512-0.319,1.056-0.543,1.632-0.672l1.344-0.288h0.576c1.855-0.255,3.456,0.129,4.8,1.152c0,0.064,0.063,0.096,0.192,0.096
		l0.768,0.672l0.288,0.288l0.288,0.385c0,0.064,0.015,0.096,0.048,0.096c0.031,0,0.048,0.033,0.048,0.096l0.096,0.096v0.192
		c0.063,0,0.096,0.032,0.096,0.096v0.097c0.063,0.064,0.127,0.096,0.192,0.096v0.096c0,0.064,0.015,0.096,0.048,0.096
		c0.032,0,0.048,0.018,0.048,0.049c0,0.033,0.032,0.08,0.096,0.144v0.097C46.543,27.457,46.574,27.521,46.639,27.583z
		 M49.231,91.519v-0.287c-0.064,0.064-0.096,0.32-0.096,0.768c0-0.191,0.032-0.32,0.096-0.385V91.519z"/>
	<path fill="#222222" d="M95.503,55.519c4.286-1.728,7.166-1.76,8.639-0.096c0.769,0.896,1.152,2.145,1.152,3.744v0.48
		c2.367-2.752,6.495-5.056,12.385-6.912c6.207-1.92,11.328-2.463,15.359-1.633c5.247,1.09,8.191,4.512,8.832,10.272
		c0.512,4.864-0.609,11.04-3.359,18.528c-0.897,1.919-1.584,3.472-2.064,4.656c-0.48,1.186-0.912,2.256-1.296,3.215
		c-0.833,1.793-2.146,3.938-3.937,6.434c-1.023,1.92-2.607,3.391-4.752,4.416c-2.145,1.021-4.257,1.615-6.336,1.775
		c-2.08,0.158-3.792-0.16-5.136-0.961c-1.345-0.801-1.728-2.062-1.151-3.791c1.471-3.969,2.688-7.584,3.647-10.848
		s1.951-6.048,2.976-8.353c0.961-3.264,1.088-5.311,0.385-6.144c-0.576-0.639-1.569-0.543-2.977,0.288
		c-1.217,0.768-2.08,1.665-2.592,2.688c-1.152,0.833-3.328,4.162-6.528,9.984c-0.897,1.602-1.776,3.186-2.64,4.752
		c-0.864,1.57-1.665,3.025-2.4,4.369c-0.736,1.344-1.377,2.465-1.92,3.359c-0.545,0.896-1.024,1.488-1.439,1.775
		c-0.418,0.289-0.769,0.48-1.057,0.576c-0.287,0.096-0.527,0.207-0.72,0.336s-0.353,0.543-0.479,1.248
		c-0.257,1.473-1.793,2.559-4.608,3.264c-4.545,1.152-8.64,0.961-12.288-0.576c-1.216-0.512-2.175-1.215-2.88-2.111
		c-1.472-2.943,1.056-12.959,7.584-30.047c2.304-6.015,3.807-9.601,4.512-10.752c1.599-2.432,2.64-3.808,3.12-4.128
		S94.67,55.072,95.503,55.519z"/>
	<path fill="#222222" d="M194.095,86.815c0,3.393,0.414,6.336,1.248,8.832c0,2.047-0.48,3.504-1.441,4.367
		c-0.959,0.865-2.16,1.311-3.6,1.344s-2.961-0.256-4.561-0.863c-1.6-0.609-2.961-1.361-4.08-2.256
		c-1.119-0.896-1.84-1.615-2.158-2.16c-0.322-0.543-0.834-1.359-1.537-2.447c-1.088-5.057-1.6-8.354-1.535-9.889
		c0.062-1.535,0.191-2.848,0.383-3.935c-3.201,1.664-5.408,3.105-6.623,4.32c-2.242,2.24-4.129,5.121-5.664,8.639
		c-0.514,2.818-0.93,4.305-1.248,4.465c-0.322,0.158-0.736,0.271-1.248,0.336c-0.514,0.062-1.057,0.287-1.633,0.672
		s-1.119,0.703-1.631,0.959c-0.514,0.256-1.025,0.512-1.537,0.77c-1.217,0.703-2.016,1.055-2.4,1.055
		c-3.646,1.152-7.137,0.641-10.463-1.535c-1.408-0.961-2.496-2.193-3.264-3.695c-0.768-1.504-0.961-3.121-0.576-4.85
		c2.75-11.838,6.527-23.903,11.328-36.191c2.943-7.488,5.76-13.407,8.447-17.76c0.639-1.023,1.279-2.112,1.92-3.264
		c1.344-2.305,2.271-3.872,2.785-4.705c-0.641-1.663-0.625-3.119,0.047-4.367s1.695-2.24,3.072-2.977
		c1.375-0.734,2.959-1.231,4.752-1.488c1.791-0.254,3.488-0.287,5.088-0.096c3.84,0.576,5.887,2.08,6.145,4.512
		c-0.385,1.152-0.912,2.529-1.584,4.129s-1.344,3.215-2.016,4.848c-0.672,1.632-1.312,3.152-1.92,4.561
		c-0.609,1.408-1.057,2.447-1.346,3.119c-0.287,0.672-0.705,1.824-1.248,3.456s-1.119,3.394-1.727,5.28
		c-0.609,1.889-1.17,3.633-1.68,5.232l-1.152,3.359c-0.258,0.896-0.672,2.256-1.248,4.08s-1.186,4.08-1.824,6.768
		c0.83-0.639,1.52-1.392,2.064-2.256c0.543-0.863,1.344-1.839,2.398-2.928c1.057-1.088,2.432-2.16,4.129-3.216
		c1.695-1.056,3.504-1.743,5.424-2.063c4.16-0.704,7.936,0.64,11.328,4.031c2.559,2.561,3.359,6.4,2.4,11.52
		c-0.385,2.112-0.85,4.241-1.393,6.384C194.173,83.056,193.966,85.024,194.095,86.815z"/>
	<path fill="#222222" d="M242.765,55.904L243.148,56c0.129,0,0.193,0.033,0.193,0.096c1.662-0.639,3.039-0.158,4.127,1.44
		c0.705,1.089,1.248,2.753,1.633,4.991c0.127,3.072-0.191,7.33-0.961,12.769c-1.473,11.008-2.271,17.567-2.398,19.68
		c0.127,2.238-1.248,3.775-4.129,4.607c-2.496,0.768-4.992,0.734-7.488-0.096c-2.625-0.896-3.713-2.273-3.264-4.129
		c-0.514,0.961-1.025,1.648-1.535,2.064c-0.514,0.416-1.521,0.992-3.025,1.729c-1.504,0.734-3.633,1.344-6.383,1.824
		c-2.754,0.48-5.506,0.607-8.256,0.383c-2.754-0.225-5.266-0.896-7.537-2.016s-3.791-2.863-4.561-5.232
		c-1.471-4.607-1.279-10.463,0.576-17.567c1.279-4.671,3.584-8.799,6.912-12.384c3.84-4.096,8.191-7.488,13.057-10.176
		c3.648-1.983,7.166-3.168,10.561-3.553c1.152-0.127,2.16-0.096,3.023,0.096c0.863,0.192,1.791,0.385,2.783,0.576
		c0.992,0.192,1.936,0.48,2.832,0.864C241.613,52.927,242.765,54.24,242.765,55.904z M225.005,81.343
		c0.447-0.895,0.816-2.015,1.104-3.359c0.287-1.345,0.688-2.816,1.199-4.416c-5.184,2.111-9.152,4.703-11.902,7.775
		c-3.01,3.393-2.818,5.729,0.574,7.008c2.943,0.77,5.09,0.289,6.434-1.439c0.576-0.768,1.086-1.729,1.535-2.881
		c0.447-1.15,0.992-2.334,1.633-3.551C225.388,80.8,225.197,81.089,225.005,81.343z"/>
	<path fill="#222222" d="M266.285,55.519c4.287-1.728,7.166-1.76,8.639-0.096c0.77,0.896,1.152,2.145,1.152,3.744v0.48
		c2.367-2.752,6.496-5.056,12.385-6.912c6.207-1.92,11.328-2.463,15.359-1.633c5.248,1.09,8.191,4.512,8.832,10.272
		c0.512,4.864-0.609,11.04-3.359,18.528c-0.898,1.919-1.584,3.472-2.064,4.656c-0.48,1.186-0.912,2.256-1.297,3.215
		c-0.832,1.793-2.145,3.938-3.936,6.434c-1.023,1.92-2.607,3.391-4.752,4.416c-2.145,1.021-4.256,1.615-6.336,1.775
		c-2.08,0.158-3.791-0.16-5.137-0.961c-1.344-0.801-1.727-2.062-1.15-3.791c1.471-3.969,2.688-7.584,3.646-10.848
		c0.961-3.264,1.953-6.048,2.977-8.353c0.961-3.264,1.088-5.311,0.385-6.144c-0.576-0.639-1.57-0.543-2.977,0.288
		c-1.217,0.768-2.08,1.665-2.592,2.688c-1.152,0.833-3.328,4.162-6.527,9.984c-0.898,1.602-1.777,3.186-2.641,4.752
		c-0.863,1.57-1.666,3.025-2.4,4.369c-0.736,1.344-1.377,2.465-1.92,3.359c-0.545,0.896-1.023,1.488-1.439,1.775
		c-0.418,0.289-0.768,0.48-1.057,0.576c-0.287,0.096-0.527,0.207-0.721,0.336c-0.191,0.129-0.352,0.543-0.479,1.248
		c-0.258,1.473-1.793,2.559-4.609,3.264c-4.545,1.152-8.639,0.961-12.287-0.576c-1.217-0.512-2.176-1.215-2.881-2.111
		c-1.471-2.943,1.057-12.959,7.584-30.047c2.305-6.015,3.809-9.601,4.514-10.752c1.598-2.432,2.639-3.808,3.119-4.128
		S265.451,55.072,266.285,55.519z"/>
	<path fill="#222222" d="M353.164,58.783c1.088-1.982,2.527-2.975,4.32-2.975c2.75,1.535,4.479,4.031,5.184,7.487
		c0.703,3.456-0.064,6.562-2.305,9.312c-0.064,0.064-0.031,0.609,0.098,1.633c1.15,6.4,0.734,13.056-1.248,19.968
		c-0.705,2.303-1.521,4.447-2.449,6.432c-0.928,1.982-2.08,4.479-3.455,7.488c-1.377,3.006-3.312,5.982-5.809,8.928
		c-2.496,2.943-5.312,5.279-8.447,7.008c-6.594,3.711-13.953,4.512-22.08,2.4c-2.945-1.152-4.992-2.496-6.145-4.033
		c-1.471-1.855-1.982-3.84-1.535-5.951c0.447-2.625,1.984-4.064,4.607-4.32c1.279-0.129,2.879,0.352,4.801,1.439
		c2.174,0.447,3.936,0.416,5.279-0.096c1.344-0.514,2.414-0.977,3.215-1.393s1.809-0.943,3.025-1.584
		c2.111-1.088,4.512-3.584,7.199-7.486c1.473-2.051,2.943-4.801,4.416-8.258c-2.369,3.008-6.145,4.48-11.328,4.416
		c-1.473-0.064-3.119-0.129-4.943-0.191c-1.824-0.064-3.473-0.672-4.943-1.824c-1.475-1.152-2.658-2.654-3.553-4.512
		c-0.896-1.855-1.488-3.984-1.775-6.383c-0.289-2.4-0.305-4.85-0.049-7.345c1.023-8.703,4.672-15.583,10.943-20.64
		c4.287-3.519,8.896-5.407,13.824-5.664c2.367-0.128,4.609,0.13,6.721,0.769C349.291,54.367,351.435,56.16,353.164,58.783z
		 M341.453,80.575c0-0.192,0.031-0.351,0.096-0.48c-0.322-0.127-0.641-0.24-0.961-0.336s-0.896-0.271-1.729-0.527
		s-1.951-0.111-3.359,0.432c-1.408,0.545-2.641,1.281-3.695,2.208c-1.057,0.928-1.889,1.904-2.496,2.928
		c-0.609,1.023-0.705,1.889-0.289,2.592c0.416,0.705,1.168,0.977,2.256,0.816s2.271-0.625,3.553-1.393
		C337.644,85.087,339.851,83.009,341.453,80.575z"/>
	<path fill="#222222" d="M378.316,56.095c1.344-0.96,3.006-1.184,4.99-0.672c0.385,0.064,0.77,0.096,1.152,0.096
		c1.408-2.88,3.84-4.383,7.297-4.512c0.895-0.062,2.143-0.224,3.744-0.48c1.598-0.254,3.535-0.191,5.807,0.192s4.273,1.056,6,2.017
		c3.775,2.049,6.049,4.992,6.816,8.832c1.537,5.632,1.311,11.775-0.672,18.432c-2.111,7.361-5.697,13.248-10.752,17.664
		c-2.305,2.047-4.736,3.344-7.295,3.889c-2.561,0.543-4.865,0.848-6.912,0.912c-2.049,0.062-3.922,0.078-5.617,0.047
		c-1.695-0.033-3.344-0.209-4.943-0.527c-3.457-0.705-6.305-2.338-8.545-4.896c-2.625-2.879-3.744-7.359-3.359-13.439
		c0.256-5.376,1.615-10.8,4.08-16.272C372.57,61.904,375.306,58.144,378.316,56.095z M395.21,75.392
		c-1.6,0.512-3.104,0.736-4.512,0.672c-0.705,0.705-1.328,1.456-1.871,2.256c-0.545,0.801-1.266,1.535-2.16,2.207
		c-0.898,0.672-1.344,0.945-1.344,0.816c-1.09,1.537-1.984,3.121-2.689,4.752c-0.705,1.633-0.705,3.281,0,4.945
		c2.561,0.256,4.447,0.191,5.664-0.193c1.215-0.383,2.354-1.119,3.408-2.207c1.057-1.088,1.873-2.367,2.449-3.84
		C395.306,82.048,395.658,78.912,395.21,75.392z"/>
	<path fill="#222222" d="M427.658,54.943c1.791-1.728,3.793-2.735,6-3.023c2.209-0.288,4.16-0.048,5.855,0.72
		c1.695,0.769,2.943,2.001,3.744,3.696c0.801,1.696,0.688,3.633-0.336,5.809c-2.176,3.2-3.904,6.656-5.184,10.367
		c-1.281,3.713-2.465,7.457-3.553,11.232c5.889-3.71,10.816-9.248,14.785-16.608c1.152-2.175,2.4-4.383,3.744-6.624l1.439-2.688
		l2.881-4.608c0.383-1.215,1.055-1.999,2.016-2.353c0.959-0.351,1.998-0.527,3.119-0.527c1.119,0,2.256,0.017,3.408,0.048
		c1.152,0.033,2.209-0.271,3.168-0.912c0.961-0.639,2.096-0.879,3.408-0.72c1.311,0.16,2.496,0.592,3.553,1.296
		c1.055,0.705,1.855,1.553,2.398,2.544c0.543,0.993,0.592,1.969,0.145,2.928c-2.688,5.76-6.369,16.48-11.039,32.16
		c-1.09,3.521-2.113,6.465-3.072,8.832c-1.602,1.984-3.617,3.328-6.049,4.033c-2.434,0.703-4.721,0.912-6.863,0.623
		c-2.145-0.287-3.857-1.023-5.137-2.207c-1.281-1.186-1.568-2.672-0.863-4.465c-1.793,1.473-3.648,2.816-5.568,4.031
		s-4.24,2.018-6.961,2.4c-2.721,0.385-5.326,0.271-7.822-0.336c-2.496-0.609-4.625-1.775-6.385-3.504
		c-1.762-1.729-2.705-4.031-2.832-6.912C415.273,80.064,419.273,68.32,427.658,54.943z"/>
	<path fill="#222222" d="M499.369,25.279l0.096-0.383l0.863-0.865c0.705-1.663,1.473-2.654,2.305-2.976
		c0.447-0.128,1.023-0.288,1.729-0.479c0.703-0.192,1.631-0.672,2.783-1.44c0.447-0.896,1.377-1.296,2.785-1.2
		c1.406,0.096,2.799,0.545,4.176,1.344c1.375,0.802,2.496,1.906,3.359,3.312c0.863,1.408,1.07,2.865,0.625,4.368
		c-0.449,1.505-0.816,2.625-1.105,3.36c-0.287,0.736-0.576,1.425-0.863,2.063c-0.287,0.641-0.641,1.36-1.057,2.16
		c-0.416,0.801-0.945,1.872-1.584,3.216l-3.168,6.624c-0.32,0.833-0.592,1.312-0.816,1.44c-0.225,0.129-0.432,0.352-0.623,0.672
		c0.576-0.128,1.057-0.224,1.439-0.288c0.385-0.063,0.768-0.128,1.152-0.192c0.896-0.127,1.92-0.255,3.072-0.384
		c0.703,0.129,1.311,0.192,1.824,0.192h1.344c0.768,0,1.695,0.208,2.783,0.623c1.088,0.418,1.791,1.138,2.113,2.16
		c0.318,1.025,0.35,2.064,0.096,3.121c-0.256,1.055-0.768,2.031-1.537,2.928c-0.768,0.896-1.76,1.377-2.975,1.439
		c-5.568,1.536-9.537,2.369-11.904,2.496l-0.576,0.672v0.096c-0.641,1.537-1.328,3.473-2.064,5.809
		c-0.736,2.337-1.535,4.864-2.4,7.584c-0.863,2.721-1.744,5.537-2.639,8.447c-0.898,2.914-1.824,5.713-2.785,8.4
		c-3.072,9.025-5.312,13.92-6.719,14.689c-0.514,0.254-1.041,0.432-1.584,0.527c-0.545,0.096-0.85,0.176-0.912,0.24
		c-2.242-0.129-4.098-0.576-5.568-1.344c-1.473-0.77-2.465-1.506-2.977-2.209c-0.512-0.705-0.641-1.504-0.383-2.4
		c1.215-11.135,3.646-23.328,7.295-36.576c-1.281,0-2.176,0.129-2.688,0.385c-0.961,0.513-2.111,0.801-3.457,0.863h-0.096
		c-1.023-0.062-1.953-0.543-2.783-1.439c-0.832-0.896-1.344-1.92-1.537-3.072c-0.191-1.152,0-2.336,0.576-3.552
		c0.576-1.215,1.729-2.175,3.457-2.88c2.047-0.576,3.551-1.057,4.512-1.439c1.855-0.769,3.408-1.312,4.656-1.633
		c1.248-0.319,1.951-0.527,2.111-0.624c0.16-0.096,0.271-0.175,0.336-0.239c0.193-0.128,0.672-0.192,1.439-0.192
		c0.385-1.855,0.77-3.744,1.152-5.664c0.385-1.92,0.865-3.872,1.441-5.856C495.369,32.576,497.128,28.608,499.369,25.279z"/>
</g>
</svg>
