<?xml version="1.0" encoding="utf-8"?>
<!-- Generator: Adobe Illustrator 16.0.4, SVG Export Plug-In . SVG Version: 6.00 Build 0)  -->
<!DOCTYPE svg PUBLIC "-//W3C//DTD SVG 1.1//EN" "http://www.w3.org/Graphics/SVG/1.1/DTD/svg11.dtd">
<svg version="1.1" id="Layer_1" xmlns="http://www.w3.org/2000/svg" xmlns:xlink="http://www.w3.org/1999/xlink" x="0px" y="0px"
	 width="153.718px" height="150.057px" viewBox="0 0 153.718 150.057" enable-background="new 0 0 153.718 150.057"
	 xml:space="preserve">
<g>
	<g>
		<path fill="#333333" d="M149.587,84.048c0.541-2.824,1.213-5.629,1.6-8.475c0.943-6.932,2.193-13.855,2.502-20.832
			c0.366-8.276-2.79-15.863-7.15-22.984c-4.865-7.941-11.521-14.38-19.627-18.924c-9.334-5.23-19.449-8.949-29.984-11.26
			c-5.739-1.26-11.475-1.909-17.433-1.397c-9.166,0.786-18.414,0.86-27.413,2.876C42.683,5.157,33.507,7.9,25.91,13.829
			c-3.502,2.734-6.333,6.256-9.639,9.244c-5.082,4.595-8.358,10.486-11.19,16.373c-4.372,9.084-5.42,19.162-4.993,29.17
			c0.428,10.07,3.237,19.738,8.271,28.789c4.949,8.891,12.226,15.645,20.388,21.691c5.353,3.963,10.828,7.623,17.309,9.662
			c1.837,0.578,3.688,1.49,3.702,3.959c0.024,4.799-1.113,9.219-4.186,12.98c-1.172,1.434-0.756,3.711,1.151,3.928
			c2.839,0.324,5.868,0.723,8.566,0.115c7.455-1.664,12.038-7.061,16.007-12.883c1.148-1.686,2.314-1.986,4.229-2.039
			c4.547-0.127,9.189-0.143,13.591-1.053c8.986-1.857,17.784-4.365,25.56-9.352c6.741-4.328,13.707-8.385,18.98-14.463
			C140.39,102.188,146.86,94.243,149.587,84.048z"/>
		<path fill-rule="evenodd" clip-rule="evenodd" fill="#222222" d="M149.587,84.048c-2.727,10.195-9.197,18.141-15.932,25.904
			c-5.273,6.078-12.239,10.135-18.98,14.463c-7.775,4.986-16.573,7.494-25.56,9.352c-4.401,0.91-9.044,0.926-13.591,1.053
			c-1.914,0.053-3.08,0.354-4.229,2.039c-3.969,5.822-8.552,11.219-16.007,12.883c-2.699,0.607-5.728,0.209-8.566-0.115
			c-1.907-0.217-2.323-2.494-1.151-3.928c3.073-3.762,4.209-8.182,4.186-12.98c-0.013-2.469-1.864-3.381-3.702-3.959
			c-6.481-2.039-11.956-5.699-17.309-9.662c-8.162-6.047-15.438-12.801-20.388-21.691c-5.034-9.051-7.843-18.719-8.271-28.789
			c-0.427-10.008,0.621-20.086,4.993-29.17c2.832-5.887,6.108-11.778,11.19-16.373c3.306-2.988,6.136-6.51,9.639-9.244
			C33.507,7.9,42.683,5.157,52.082,3.052c8.999-2.016,18.247-2.09,27.413-2.876c5.958-0.512,11.693,0.138,17.433,1.397
			c10.535,2.311,20.65,6.029,29.984,11.26c8.106,4.544,14.762,10.982,19.627,18.924c4.36,7.121,7.517,14.708,7.15,22.984
			c-0.309,6.977-1.559,13.9-2.502,20.832C150.8,78.419,150.128,81.224,149.587,84.048z M50.942,146.589
			c1.794-0.328,3.241-0.406,4.544-0.863c5.562-1.941,9.569-5.842,12.106-10.746c1.729-3.338,4.094-4.404,7.515-4.49
			c1.525-0.039,3.053-0.062,4.576-0.121c9.637-0.377,19.035-2.123,27.506-6.389c10.925-5.5,20.955-12.186,28.287-22.211
			c4.887-6.682,9.193-13.588,10.805-21.641c1.558-7.797,2.203-15.783,3.176-23.697c0.836-6.818-1.389-13.18-4.479-19.105
			c-5.344-10.25-13.162-18.37-24.215-23.082c-6.119-2.607-12.205-5.465-18.57-7.279c-6.019-1.715-12.205-2.758-18.681-2.728
			c-11.875,0.058-23.629,0.151-34.99,3.75c-7.595,2.405-15.233,4.831-21.299,10.035c-3.595,3.085-6.74,6.684-9.911,10.202
			c-5.087,5.645-8.949,12.121-10.77,19.4C3.57,59.525,3.321,71.587,7.136,83.595c2.514,7.918,5.946,15.432,11.992,21.451
			c4.169,4.15,8.848,7.824,13.367,11.639c4.83,4.07,10.231,7.104,16.403,8.887c1.413,0.408,2.928,1.775,3.625,3.076
			c1.47,2.742,1.947,5.775,1.066,8.834C52.776,140.313,51.946,143.14,50.942,146.589z"/>
		<path fill-rule="evenodd" clip-rule="evenodd" fill="#3652D3" d="M50.942,146.589c1.004-3.449,1.834-6.275,2.648-9.107
			c0.881-3.059,0.403-6.092-1.066-8.834c-0.698-1.301-2.212-2.668-3.625-3.076c-6.172-1.783-11.573-4.816-16.403-8.887
			c-4.519-3.814-9.197-7.488-13.367-11.639c-6.046-6.02-9.478-13.533-11.992-21.451C3.321,71.587,3.57,59.525,6.544,47.624
			c1.821-7.279,5.683-13.756,10.77-19.4c3.171-3.519,6.316-7.117,9.911-10.202c6.065-5.204,13.704-7.63,21.299-10.035
			c11.36-3.599,23.115-3.692,34.99-3.75c6.476-0.03,12.662,1.013,18.681,2.728c6.365,1.814,12.451,4.672,18.57,7.279
			c11.053,4.712,18.871,12.832,24.215,23.082c3.09,5.926,5.314,12.287,4.479,19.105c-0.973,7.914-1.618,15.9-3.176,23.697
			c-1.611,8.053-5.918,14.959-10.805,21.641c-7.332,10.025-17.362,16.711-28.287,22.211c-8.471,4.266-17.869,6.012-27.506,6.389
			c-1.523,0.059-3.051,0.082-4.576,0.121c-3.421,0.086-5.786,1.152-7.515,4.49c-2.538,4.904-6.545,8.805-12.106,10.746
			C54.184,146.183,52.736,146.261,50.942,146.589z"/>
	</g>
	<g>
		<path fill="#222222" d="M46.738,28.283v0.192c0,0.064,0.015,0.097,0.048,0.097c0.031,0,0.048,0.032,0.048,0.096v0.191h0.096
			l0.576,1.536c0.639,1.856-1.024,7.617-4.992,17.28c-4.224,10.305-6.177,18.336-5.856,24.096c0.703,4.097,4.128,0.801,10.272-9.888
			c4.863-8.319,9.567-17.438,14.112-27.36c0.576-1.344,1.184-2.736,1.824-4.176c0.639-1.439,1.44-2.641,2.4-3.6
			c2.112-2.305,4.671-2.912,7.68-1.824c1.023-1.215,2.223-2.048,3.6-2.496c1.375-0.447,2.688-0.543,3.936-0.288
			c1.248,0.257,2.32,0.849,3.217,1.776c0.896,0.928,1.375,2.16,1.439,3.695c0.192,1.281-0.465,4.32-1.968,9.12
			c-1.505,4.8-2.896,9.185-4.176,13.152c-1.281,3.969-2.592,8.288-3.936,12.96c-3.264,11.072-5.856,21.504-7.776,31.296
			c-0.064,2.049-0.945,3.744-2.64,5.088c-1.696,1.345-3.585,2.224-5.664,2.64c-2.081,0.416-4.048,0.336-5.904-0.24
			c-2.241-0.64-3.425-2.24-3.552-4.799c0-0.704-0.033-1.408-0.096-2.112c0.127,2.177-1.44,4.032-4.704,5.567
			c-0.897,0.447-1.728,0.864-2.496,1.248c-4.48,1.344-9.185,1.057-14.112-0.863c-2.304-0.961-4.368-2.256-6.192-3.889
			c-1.824-1.632-3.088-3.566-3.792-5.808c-2.241-7.167-1.824-16.575,1.248-28.224c1.28-4.992,2.847-9.855,4.704-14.592
			c1.855-4.736,3.216-8.16,4.08-10.272c0.864-2.112,1.488-3.567,1.872-4.368c0.384-0.799,0.799-1.584,1.248-2.352
			c1.087-2.176,2.016-3.648,2.784-4.416l1.152-1.057c0.127-0.127,0.255-0.207,0.384-0.24c0.127-0.031,0.288-0.11,0.48-0.24
			c0.512-0.318,1.056-0.543,1.632-0.672l1.344-0.287h0.576c1.855-0.256,3.456,0.129,4.8,1.152c0,0.064,0.063,0.096,0.192,0.096
			l0.768,0.672l0.288,0.287l0.288,0.385c0,0.064,0.015,0.096,0.048,0.096c0.031,0,0.048,0.033,0.048,0.096l0.096,0.097v0.192
			c0.063,0,0.096,0.032,0.096,0.096v0.096c0.063,0.064,0.127,0.096,0.192,0.096v0.096c0,0.064,0.015,0.097,0.048,0.097
			c0.032,0,0.048,0.017,0.048,0.048c0,0.033,0.032,0.081,0.096,0.145v0.096C46.642,28.156,46.673,28.221,46.738,28.283z
			 M49.33,92.22v-0.288c-0.064,0.064-0.096,0.32-0.096,0.768c0-0.191,0.032-0.319,0.096-0.384V92.22z"/>
		<path fill="#222222" d="M95.603,56.22c4.286-1.728,7.166-1.76,8.639-0.097c0.769,0.897,1.152,2.146,1.152,3.744v0.48
			c2.367-2.751,6.495-5.055,12.385-6.912c6.207-1.92,11.328-2.463,15.359-1.632c5.247,1.089,8.191,4.512,8.832,10.272
			c0.512,4.863-0.609,11.039-3.359,18.527c-0.897,1.92-1.584,3.473-2.064,4.656c-0.48,1.186-0.912,2.256-1.296,3.216
			c-0.833,1.792-2.146,3.937-3.937,6.433c-1.023,1.92-2.607,3.391-4.752,4.416c-2.145,1.022-4.257,1.615-6.336,1.775
			c-2.08,0.159-3.792-0.16-5.136-0.96c-1.345-0.802-1.728-2.063-1.151-3.792c1.471-3.968,2.688-7.584,3.647-10.848
			s1.951-6.049,2.976-8.353c0.961-3.264,1.088-5.312,0.385-6.144c-0.576-0.639-1.569-0.543-2.977,0.287
			c-1.217,0.769-2.08,1.666-2.592,2.688c-1.152,0.833-3.328,4.161-6.528,9.983c-0.897,1.602-1.776,3.186-2.64,4.753
			c-0.864,1.569-1.665,3.024-2.4,4.368c-0.736,1.344-1.377,2.465-1.92,3.359c-0.545,0.897-1.024,1.488-1.439,1.776
			c-0.418,0.288-0.769,0.479-1.057,0.575c-0.287,0.097-0.527,0.207-0.72,0.337c-0.192,0.128-0.353,0.543-0.479,1.247
			c-0.257,1.473-1.793,2.56-4.608,3.265c-4.545,1.151-8.64,0.96-12.288-0.576c-1.217-0.513-2.175-1.216-2.88-2.112
			c-1.472-2.943,1.056-12.959,7.584-30.047c2.304-6.016,3.807-9.601,4.512-10.752c1.599-2.432,2.64-3.808,3.12-4.129
			C94.114,55.708,94.77,55.772,95.603,56.22z"/>
	</g>
</g>
</svg>
