<?xml version="1.0" encoding="utf-8"?>
<!-- Generator: Adobe Illustrator 16.0.4, SVG Export Plug-In . SVG Version: 6.00 Build 0)  -->
<!DOCTYPE svg PUBLIC "-//W3C//DTD SVG 1.1//EN" "http://www.w3.org/Graphics/SVG/1.1/DTD/svg11.dtd">
<svg version="1.1" id="Layer_1" xmlns="http://www.w3.org/2000/svg" xmlns:xlink="http://www.w3.org/1999/xlink" x="0px" y="0px"
	 width="538.867px" height="150.187px" viewBox="0 0 538.867 150.187" enable-background="new 0 0 538.867 150.187"
	 xml:space="preserve">
<g>
	<path fill="#333333" d="M155.127,84.989c0.53-2.828,1.197-5.635,1.568-8.484c0.905-6.943,2.128-13.875,2.375-20.869
		c0.294-8.298-3.054-15.94-7.644-23.129c-5.121-8.016-12.081-14.543-20.523-19.184c-9.721-5.344-20.236-9.179-31.172-11.605
		C93.776,0.395,87.83-0.316,81.665,0.136c-9.484,0.693-19.062,0.672-28.36,2.6c-9.712,2.014-19.187,4.67-26.993,10.538
		c-3.6,2.706-6.494,6.209-9.887,9.172c-5.215,4.556-8.548,10.432-11.419,16.307C0.571,47.818-0.41,57.916,0.137,67.958
		C0.684,78.063,3.694,87.79,9.001,96.921c5.218,8.969,12.823,15.818,21.34,21.969c5.585,4.029,11.293,7.758,18.026,9.871
		c1.909,0.598,3.836,1.531,3.875,4.008c0.074,4.814-1.057,9.236-4.2,12.977c-1.198,1.426-0.745,3.715,1.233,3.951
		c2.943,0.355,6.084,0.787,8.873,0.205c7.703-1.592,12.393-6.957,16.443-12.756c1.172-1.678,2.377-1.969,4.358-2
		c4.708-0.08,9.516-0.049,14.064-0.916c9.287-1.77,18.373-4.193,26.374-9.113c6.937-4.271,14.108-8.27,19.507-14.311
		C145.791,103.089,152.41,95.187,155.127,84.989z"/>
	<path fill-rule="evenodd" clip-rule="evenodd" fill="#222222" d="M155.127,84.989c-2.718,10.197-9.337,18.1-16.231,25.816
		c-5.398,6.041-12.57,10.039-19.507,14.311c-8.001,4.92-17.087,7.344-26.374,9.113c-4.549,0.867-9.356,0.836-14.064,0.916
		c-1.981,0.031-3.187,0.322-4.358,2c-4.051,5.799-8.74,11.164-16.443,12.756c-2.789,0.582-5.93,0.15-8.873-0.205
		c-1.979-0.236-2.432-2.525-1.233-3.951c3.144-3.74,4.274-8.162,4.2-12.977c-0.039-2.477-1.966-3.41-3.875-4.008
		c-6.733-2.113-12.441-5.842-18.026-9.871c-8.517-6.15-16.122-13-21.34-21.969C3.694,87.79,0.684,78.063,0.137,67.958
		C-0.41,57.916,0.571,47.818,5.005,38.752c2.871-5.875,6.204-11.751,11.419-16.307c3.393-2.963,6.287-6.466,9.887-9.172
		C34.118,7.406,43.592,4.75,53.304,2.736c9.298-1.928,18.876-1.906,28.36-2.6c6.165-0.452,12.111,0.259,18.067,1.582
		c10.936,2.427,21.451,6.262,31.172,11.605c8.442,4.641,15.402,11.168,20.523,19.184c4.59,7.188,7.938,14.831,7.644,23.129
		c-0.247,6.994-1.47,13.926-2.375,20.869C156.325,79.354,155.658,82.161,155.127,84.989z M53.614,146.694
		c1.854-0.311,3.354-0.373,4.697-0.818c5.74-1.891,9.85-5.76,12.428-10.652c1.756-3.33,4.193-4.375,7.736-4.426
		c1.578-0.023,3.16-0.031,4.738-0.074c9.977-0.279,19.691-1.932,28.421-6.123c11.256-5.402,21.574-12.004,29.064-21.984
		c4.992-6.65,9.38-13.533,10.965-21.594c1.533-7.804,2.118-15.808,3.043-23.736c0.795-6.83-1.574-13.234-4.836-19.21
		c-5.641-10.337-13.822-18.562-25.318-23.403c-6.364-2.678-12.697-5.607-19.309-7.494c-6.25-1.781-12.668-2.893-19.375-2.93
		C73.572,4.185,61.399,4.157,49.67,7.648c-7.84,2.334-15.727,4.688-21.954,9.845c-3.69,3.058-6.911,6.634-10.159,10.13
		C12.348,33.232,8.417,39.687,6.606,46.97c-2.957,11.906-3.09,24.002,0.986,36.085c2.686,7.969,6.317,15.539,12.643,21.641
		c4.361,4.205,9.244,7.939,13.964,11.812c5.044,4.133,10.669,7.23,17.08,9.084c1.468,0.424,3.051,1.811,3.787,3.123
		c1.55,2.766,2.077,5.812,1.196,8.871C55.448,140.419,54.618,143.245,53.614,146.694z"/>
	<path fill-rule="evenodd" clip-rule="evenodd" fill="#83FFCD" d="M53.614,146.694c1.004-3.449,1.834-6.275,2.648-9.107
		c0.881-3.059,0.354-6.105-1.196-8.871c-0.736-1.312-2.319-2.699-3.787-3.123c-6.411-1.854-12.036-4.951-17.08-9.084
		c-4.72-3.873-9.603-7.607-13.964-11.812c-6.325-6.102-9.957-13.672-12.643-21.641C3.516,70.972,3.649,58.876,6.606,46.97
		c1.811-7.283,5.742-13.738,10.951-19.348c3.248-3.496,6.469-7.072,10.159-10.13c6.228-5.157,14.114-7.511,21.954-9.845
		C61.399,4.157,73.572,4.185,85.869,4.25c6.707,0.037,13.125,1.148,19.375,2.93c6.611,1.887,12.944,4.816,19.309,7.494
		c11.496,4.842,19.678,13.066,25.318,23.403c3.262,5.976,5.631,12.38,4.836,19.21c-0.925,7.928-1.51,15.932-3.043,23.736
		c-1.585,8.061-5.973,14.943-10.965,21.594c-7.49,9.98-17.809,16.582-29.064,21.984c-8.729,4.191-18.444,5.844-28.421,6.123
		c-1.578,0.043-3.16,0.051-4.738,0.074c-3.543,0.051-5.98,1.096-7.736,4.426c-2.578,4.893-6.688,8.762-12.428,10.652
		C56.967,146.321,55.468,146.384,53.614,146.694z"/>
</g>
<path fill="#222222" d="M46.639,27.583v0.191c0,0.064,0.015,0.097,0.048,0.097c0.031,0,0.048,0.032,0.048,0.096v0.192h0.096
	l0.576,1.535c0.639,1.857-1.024,7.617-4.992,17.281c-4.224,10.305-6.177,18.336-5.855,24.096c0.703,4.096,4.128,0.801,10.271-9.889
	c4.863-8.318,9.567-17.438,14.112-27.359c0.576-1.344,1.184-2.736,1.824-4.176c0.639-1.44,1.44-2.641,2.399-3.601
	c2.112-2.304,4.672-2.911,7.681-1.823c1.022-1.216,2.223-2.049,3.6-2.496c1.376-0.447,2.688-0.543,3.937-0.289
	c1.248,0.257,2.318,0.85,3.216,1.776c0.896,0.929,1.375,2.16,1.439,3.696c0.192,1.281-0.465,4.32-1.968,9.119
	c-1.504,4.801-2.896,9.186-4.176,13.152c-1.281,3.969-2.592,8.289-3.936,12.961c-3.265,11.072-5.856,21.503-7.776,31.294
	c-0.064,2.049-0.945,3.744-2.64,5.088c-1.697,1.346-3.586,2.225-5.664,2.641c-2.081,0.416-4.049,0.336-5.904-0.24
	c-2.241-0.641-3.425-2.24-3.553-4.799c0-0.705-0.032-1.408-0.096-2.113c0.128,2.178-1.439,4.033-4.703,5.568
	c-0.897,0.447-1.729,0.863-2.496,1.248c-4.48,1.344-9.186,1.057-14.112-0.863c-2.304-0.961-4.368-2.256-6.192-3.889
	s-3.088-3.566-3.792-5.809c-2.241-7.166-1.823-16.574,1.248-28.223c1.28-4.992,2.847-9.854,4.704-14.592
	c1.855-4.735,3.216-8.16,4.08-10.272c0.863-2.111,1.488-3.566,1.872-4.367c0.384-0.8,0.8-1.584,1.248-2.353
	c1.087-2.175,2.016-3.647,2.784-4.416l1.152-1.056c0.127-0.128,0.254-0.207,0.383-0.24c0.128-0.031,0.289-0.111,0.48-0.24
	c0.512-0.319,1.057-0.543,1.632-0.672l1.345-0.288h0.576c1.855-0.255,3.455,0.129,4.799,1.152c0,0.064,0.063,0.096,0.192,0.096
	l0.769,0.672l0.287,0.288l0.289,0.385c0,0.064,0.014,0.096,0.047,0.096c0.031,0,0.049,0.033,0.049,0.096l0.096,0.096v0.192
	c0.062,0,0.096,0.032,0.096,0.096v0.097c0.063,0.064,0.128,0.096,0.192,0.096v0.096c0,0.064,0.015,0.096,0.048,0.096
	c0.031,0,0.048,0.018,0.048,0.049c0,0.033,0.032,0.08,0.097,0.144v0.097C46.543,27.457,46.575,27.521,46.639,27.583z M49.231,91.519
	v-0.287c-0.064,0.064-0.096,0.32-0.096,0.768c0-0.191,0.031-0.32,0.096-0.385V91.519z"/>
<path fill="#222222" d="M95.503,55.519c4.286-1.728,7.166-1.76,8.639-0.096c0.769,0.896,1.152,2.145,1.152,3.744v0.48
	c2.367-2.752,6.495-5.056,12.385-6.912c6.207-1.92,11.328-2.463,15.359-1.633c5.247,1.09,8.191,4.512,8.832,10.272
	c0.512,4.864-0.609,11.04-3.359,18.528c-0.897,1.92-1.584,3.473-2.064,4.656c-0.48,1.186-0.912,2.256-1.296,3.215
	c-0.833,1.793-2.146,3.938-3.937,6.434c-1.023,1.92-2.607,3.391-4.752,4.416c-2.145,1.021-4.257,1.615-6.336,1.775
	c-2.08,0.158-3.792-0.16-5.136-0.961c-1.345-0.801-1.728-2.062-1.151-3.791c1.471-3.969,2.688-7.584,3.647-10.848
	s1.951-6.049,2.976-8.354c0.961-3.263,1.088-5.31,0.385-6.143c-0.576-0.639-1.569-0.543-2.977,0.288
	c-1.217,0.768-2.08,1.665-2.592,2.688c-1.152,0.833-3.328,4.162-6.528,9.984c-0.897,1.602-1.776,3.186-2.64,4.752
	c-0.864,1.57-1.665,3.025-2.4,4.369c-0.736,1.344-1.377,2.465-1.92,3.359c-0.545,0.896-1.024,1.488-1.439,1.775
	c-0.418,0.289-0.769,0.48-1.057,0.576c-0.287,0.096-0.527,0.207-0.72,0.336s-0.353,0.543-0.479,1.248
	c-0.257,1.473-1.793,2.559-4.608,3.264c-4.545,1.152-8.64,0.961-12.288-0.576c-1.216-0.512-2.175-1.215-2.88-2.111
	c-1.472-2.943,1.056-12.959,7.584-30.047c2.304-6.015,3.807-9.601,4.512-10.752c1.599-2.432,2.64-3.808,3.12-4.128
	S94.67,55.072,95.503,55.519z"/>
<g>
	<path fill="#222222" d="M210.095,88.815c0,3.393,0.414,6.336,1.248,8.832c0,2.047-0.48,3.504-1.441,4.367
		c-0.959,0.865-2.16,1.311-3.6,1.344s-2.961-0.256-4.561-0.863c-1.6-0.609-2.961-1.361-4.08-2.256
		c-1.119-0.896-1.84-1.615-2.158-2.16c-0.322-0.543-0.834-1.359-1.537-2.447c-1.088-5.057-1.6-8.354-1.535-9.889
		c0.062-1.535,0.191-2.848,0.383-3.936c-3.201,1.664-5.408,3.105-6.623,4.32c-2.242,2.24-4.129,5.121-5.664,8.639
		c-0.514,2.818-0.93,4.305-1.248,4.465c-0.322,0.158-0.736,0.271-1.248,0.336c-0.514,0.062-1.057,0.287-1.633,0.672
		s-1.119,0.703-1.631,0.959c-0.514,0.256-1.025,0.512-1.537,0.77c-1.217,0.703-2.016,1.055-2.4,1.055
		c-3.646,1.152-7.137,0.641-10.463-1.535c-1.408-0.961-2.496-2.193-3.264-3.695c-0.768-1.504-0.961-3.121-0.576-4.85
		c2.75-11.838,6.527-23.903,11.328-36.191c2.943-7.488,5.76-13.407,8.447-17.76c0.639-1.023,1.279-2.112,1.92-3.264
		c1.344-2.305,2.271-3.872,2.785-4.705c-0.641-1.663-0.625-3.119,0.047-4.367s1.695-2.24,3.072-2.977
		c1.375-0.734,2.959-1.231,4.752-1.488c1.791-0.254,3.488-0.287,5.088-0.096c3.84,0.576,5.887,2.08,6.145,4.512
		c-0.385,1.152-0.912,2.529-1.584,4.129s-1.344,3.215-2.016,4.848c-0.672,1.632-1.312,3.152-1.92,4.561
		c-0.609,1.408-1.057,2.447-1.346,3.119c-0.287,0.672-0.705,1.824-1.248,3.456s-1.119,3.394-1.727,5.28
		c-0.609,1.889-1.17,3.633-1.68,5.232l-1.152,3.359c-0.258,0.896-0.672,2.256-1.248,4.08s-1.186,4.08-1.824,6.768
		c0.83-0.639,1.52-1.392,2.064-2.256c0.543-0.863,1.344-1.839,2.398-2.928c1.057-1.088,2.432-2.16,4.129-3.216
		c1.695-1.056,3.504-1.743,5.424-2.063c4.16-0.704,7.936,0.64,11.328,4.031c2.559,2.561,3.359,6.4,2.4,11.52
		c-0.385,2.112-0.85,4.241-1.393,6.384C210.173,85.056,209.966,87.024,210.095,88.815z"/>
	<path fill="#222222" d="M258.765,57.904L259.148,58c0.129,0,0.193,0.033,0.193,0.096c1.662-0.639,3.039-0.158,4.127,1.44
		c0.705,1.089,1.248,2.753,1.633,4.991c0.127,3.072-0.191,7.33-0.961,12.768c-1.473,11.009-2.271,17.567-2.398,19.681
		c0.127,2.238-1.248,3.775-4.129,4.607c-2.496,0.768-4.992,0.734-7.488-0.096c-2.625-0.896-3.713-2.273-3.264-4.129
		c-0.514,0.961-1.025,1.648-1.535,2.064c-0.514,0.416-1.521,0.992-3.025,1.729c-1.504,0.734-3.633,1.344-6.383,1.824
		c-2.754,0.48-5.506,0.607-8.256,0.383c-2.754-0.225-5.266-0.896-7.537-2.016s-3.791-2.863-4.561-5.232
		c-1.471-4.607-1.279-10.463,0.576-17.566c1.279-4.671,3.584-8.799,6.912-12.384c3.84-4.096,8.191-7.488,13.057-10.176
		c3.648-1.983,7.166-3.168,10.561-3.553c1.152-0.127,2.16-0.096,3.023,0.096c0.863,0.192,1.791,0.385,2.783,0.576
		c0.992,0.192,1.936,0.48,2.832,0.864C257.613,54.927,258.765,56.24,258.765,57.904z M241.005,83.343
		c0.447-0.895,0.816-2.016,1.104-3.359s0.688-2.815,1.199-4.415c-5.184,2.111-9.152,4.702-11.902,7.774
		c-3.01,3.393-2.818,5.729,0.574,7.008c2.943,0.77,5.09,0.289,6.434-1.439c0.576-0.768,1.086-1.729,1.535-2.881
		c0.447-1.15,0.992-2.334,1.633-3.551C241.388,82.8,241.197,83.089,241.005,83.343z"/>
	<path fill="#222222" d="M282.285,57.519c4.287-1.728,7.166-1.76,8.639-0.096c0.77,0.896,1.152,2.145,1.152,3.744v0.48
		c2.367-2.752,6.496-5.056,12.385-6.912c6.207-1.92,11.328-2.463,15.359-1.633c5.248,1.09,8.191,4.512,8.832,10.272
		c0.512,4.864-0.609,11.04-3.359,18.528c-0.898,1.92-1.584,3.473-2.064,4.656c-0.48,1.186-0.912,2.256-1.297,3.215
		c-0.832,1.793-2.145,3.938-3.936,6.434c-1.023,1.92-2.607,3.391-4.752,4.416c-2.145,1.021-4.256,1.615-6.336,1.775
		c-2.08,0.158-3.791-0.16-5.137-0.961c-1.344-0.801-1.727-2.062-1.15-3.791c1.471-3.969,2.688-7.584,3.646-10.848
		c0.961-3.264,1.953-6.049,2.977-8.354c0.961-3.263,1.088-5.31,0.385-6.143c-0.576-0.639-1.57-0.543-2.977,0.288
		c-1.217,0.768-2.08,1.665-2.592,2.688c-1.152,0.833-3.328,4.162-6.527,9.984c-0.898,1.602-1.777,3.186-2.641,4.752
		c-0.863,1.57-1.666,3.025-2.4,4.369c-0.736,1.344-1.377,2.465-1.92,3.359c-0.545,0.896-1.023,1.488-1.439,1.775
		c-0.418,0.289-0.768,0.48-1.057,0.576c-0.287,0.096-0.527,0.207-0.721,0.336c-0.191,0.129-0.352,0.543-0.479,1.248
		c-0.258,1.473-1.793,2.559-4.609,3.264c-4.545,1.152-8.639,0.961-12.287-0.576c-1.217-0.512-2.176-1.215-2.881-2.111
		c-1.471-2.943,1.057-12.959,7.584-30.047c2.305-6.015,3.809-9.601,4.514-10.752c1.598-2.432,2.639-3.808,3.119-4.128
		S281.451,57.072,282.285,57.519z"/>
	<path fill="#222222" d="M369.164,60.783c1.088-1.982,2.527-2.975,4.32-2.975c2.75,1.535,4.479,4.031,5.184,7.487
		c0.703,3.456-0.064,6.562-2.305,9.312c-0.064,0.064-0.031,0.609,0.098,1.633c1.15,6.399,0.734,13.056-1.248,19.968
		c-0.705,2.303-1.521,4.447-2.449,6.432c-0.928,1.982-2.08,4.479-3.455,7.488c-1.377,3.006-3.312,5.982-5.809,8.928
		c-2.496,2.943-5.312,5.279-8.447,7.008c-6.594,3.711-13.953,4.512-22.08,2.4c-2.945-1.152-4.992-2.496-6.145-4.033
		c-1.471-1.855-1.982-3.84-1.535-5.951c0.447-2.625,1.984-4.064,4.607-4.32c1.279-0.129,2.879,0.352,4.801,1.439
		c2.174,0.447,3.936,0.416,5.279-0.096c1.344-0.514,2.414-0.977,3.215-1.393s1.809-0.943,3.025-1.584
		c2.111-1.088,4.512-3.584,7.199-7.486c1.473-2.051,2.943-4.801,4.416-8.258c-2.369,3.008-6.145,4.48-11.328,4.416
		c-1.473-0.064-3.119-0.129-4.943-0.191c-1.824-0.064-3.473-0.672-4.943-1.824c-1.475-1.152-2.658-2.654-3.553-4.512
		c-0.896-1.855-1.488-3.984-1.775-6.383c-0.289-2.4-0.305-4.85-0.049-7.346c1.023-8.703,4.672-15.583,10.943-20.639
		c4.287-3.519,8.896-5.407,13.824-5.664c2.367-0.128,4.609,0.13,6.721,0.769C365.291,56.367,367.435,58.16,369.164,60.783z
		 M357.453,82.575c0-0.191,0.031-0.352,0.096-0.48c-0.322-0.127-0.641-0.24-0.961-0.336s-0.896-0.271-1.729-0.527
		s-1.951-0.111-3.359,0.432c-1.408,0.545-2.641,1.281-3.695,2.209c-1.057,0.928-1.889,1.904-2.496,2.928
		c-0.609,1.023-0.705,1.889-0.289,2.592c0.416,0.705,1.168,0.977,2.256,0.816s2.271-0.625,3.553-1.393
		C353.644,87.087,355.851,85.009,357.453,82.575z"/>
	<path fill="#222222" d="M394.316,58.095c1.344-0.96,3.006-1.184,4.99-0.672c0.385,0.064,0.77,0.096,1.152,0.096
		c1.408-2.88,3.84-4.383,7.297-4.512c0.895-0.062,2.143-0.224,3.744-0.48c1.598-0.254,3.535-0.191,5.807,0.192s4.273,1.056,6,2.017
		c3.775,2.049,6.049,4.992,6.816,8.832c1.537,5.632,1.311,11.775-0.672,18.431c-2.111,7.361-5.697,13.248-10.752,17.664
		c-2.305,2.047-4.736,3.344-7.295,3.889c-2.561,0.543-4.865,0.848-6.912,0.912c-2.049,0.062-3.922,0.078-5.617,0.047
		c-1.695-0.033-3.344-0.209-4.943-0.527c-3.457-0.705-6.305-2.338-8.545-4.896c-2.625-2.879-3.744-7.359-3.359-13.439
		c0.256-5.377,1.615-10.8,4.08-16.272C388.57,63.904,391.306,60.144,394.316,58.095z M411.21,77.393
		c-1.6,0.512-3.104,0.736-4.512,0.672c-0.705,0.704-1.328,1.456-1.871,2.255c-0.545,0.801-1.266,1.535-2.16,2.207
		c-0.898,0.672-1.344,0.945-1.344,0.816c-1.09,1.537-1.984,3.121-2.689,4.752c-0.705,1.633-0.705,3.281,0,4.945
		c2.561,0.256,4.447,0.191,5.664-0.193c1.215-0.383,2.354-1.119,3.408-2.207c1.057-1.088,1.873-2.367,2.449-3.84
		C411.306,84.048,411.658,80.911,411.21,77.393z"/>
	<path fill="#222222" d="M443.658,56.943c1.791-1.728,3.793-2.735,6-3.023c2.209-0.288,4.16-0.048,5.855,0.72
		c1.695,0.769,2.943,2.001,3.744,3.696c0.801,1.696,0.688,3.633-0.336,5.809c-2.176,3.2-3.904,6.656-5.184,10.367
		c-1.281,3.713-2.465,7.457-3.553,11.232c5.889-3.711,10.816-9.247,14.785-16.608c1.152-2.175,2.4-4.383,3.744-6.624l1.439-2.688
		l2.881-4.608c0.383-1.215,1.055-1.999,2.016-2.353c0.959-0.351,1.998-0.527,3.119-0.527c1.119,0,2.256,0.017,3.408,0.048
		c1.152,0.033,2.209-0.271,3.168-0.912c0.961-0.639,2.096-0.879,3.408-0.72c1.311,0.16,2.496,0.592,3.553,1.296
		c1.055,0.705,1.855,1.553,2.398,2.544c0.543,0.993,0.592,1.969,0.145,2.928c-2.688,5.76-6.369,16.48-11.039,32.16
		c-1.09,3.521-2.113,6.465-3.072,8.832c-1.602,1.984-3.617,3.328-6.049,4.033c-2.434,0.703-4.721,0.912-6.863,0.623
		c-2.145-0.287-3.857-1.023-5.137-2.207c-1.281-1.186-1.568-2.672-0.863-4.465c-1.793,1.473-3.648,2.816-5.568,4.031
		s-4.24,2.018-6.961,2.4c-2.721,0.385-5.326,0.271-7.822-0.336c-2.496-0.609-4.625-1.775-6.385-3.504
		c-1.762-1.729-2.705-4.031-2.832-6.912C431.273,82.063,435.273,70.32,443.658,56.943z"/>
	<path fill="#222222" d="M515.369,27.279l0.096-0.383l0.863-0.865c0.705-1.663,1.473-2.654,2.305-2.976
		c0.447-0.128,1.023-0.288,1.729-0.479c0.703-0.192,1.631-0.672,2.783-1.44c0.447-0.896,1.377-1.296,2.785-1.2
		c1.406,0.096,2.799,0.545,4.176,1.344c1.375,0.802,2.496,1.906,3.359,3.312c0.863,1.408,1.07,2.865,0.625,4.368
		c-0.449,1.505-0.816,2.625-1.105,3.36c-0.287,0.736-0.576,1.425-0.863,2.063c-0.287,0.641-0.641,1.36-1.057,2.16
		c-0.416,0.801-0.945,1.872-1.584,3.216l-3.168,6.624c-0.32,0.833-0.592,1.312-0.816,1.44c-0.225,0.129-0.432,0.352-0.623,0.672
		c0.576-0.128,1.057-0.224,1.439-0.288c0.385-0.063,0.768-0.128,1.152-0.192c0.896-0.127,1.92-0.255,3.072-0.384
		c0.703,0.129,1.311,0.192,1.824,0.192h1.344c0.768,0,1.695,0.208,2.783,0.623c1.088,0.418,1.791,1.138,2.113,2.16
		c0.318,1.025,0.35,2.064,0.096,3.121c-0.256,1.055-0.768,2.031-1.537,2.928c-0.768,0.896-1.76,1.377-2.975,1.439
		c-5.568,1.536-9.537,2.369-11.904,2.496l-0.576,0.672v0.096c-0.641,1.537-1.328,3.473-2.064,5.809
		c-0.736,2.337-1.535,4.864-2.4,7.584c-0.863,2.721-1.744,5.537-2.639,8.447c-0.898,2.914-1.824,5.713-2.785,8.4
		c-3.072,9.025-5.312,13.92-6.719,14.689c-0.514,0.254-1.041,0.432-1.584,0.527c-0.545,0.096-0.85,0.176-0.912,0.24
		c-2.242-0.129-4.098-0.576-5.568-1.344c-1.473-0.77-2.465-1.506-2.977-2.209c-0.512-0.705-0.641-1.504-0.383-2.4
		c1.215-11.135,3.646-23.327,7.295-36.576c-1.281,0-2.176,0.129-2.688,0.385c-0.961,0.513-2.111,0.801-3.457,0.863h-0.096
		c-1.023-0.062-1.953-0.543-2.783-1.439c-0.832-0.896-1.344-1.92-1.537-3.072c-0.191-1.152,0-2.336,0.576-3.552
		c0.576-1.215,1.729-2.175,3.457-2.88c2.047-0.576,3.551-1.057,4.512-1.439c1.855-0.769,3.408-1.312,4.656-1.633
		c1.248-0.319,1.951-0.527,2.111-0.624c0.16-0.096,0.271-0.175,0.336-0.239c0.193-0.128,0.672-0.192,1.439-0.192
		c0.385-1.855,0.77-3.744,1.152-5.664c0.385-1.92,0.865-3.872,1.441-5.856C511.369,34.576,513.128,30.608,515.369,27.279z"/>
</g>
</svg>
